<svg width="247" height="82" viewBox="0 0 247 82" fill="none" xmlns="http://www.w3.org/2000/svg">
<mask id="path-1-outside-1_138_1665" maskUnits="userSpaceOnUse" x="-0.710938" y="-0.945312" width="466" height="83" fill="black">
<rect fill="white" x="-0.710938" y="-0.945312" width="466" height="83"/>
<path d="M74.2812 24.0781C72.8594 23.3854 70.9818 22.6016 68.6484 21.7266C66.3151 20.8516 63.6719 20.0312 60.7188 19.2656C57.7656 18.4635 54.5573 17.8073 51.0938 17.2969C47.6302 16.75 44.0755 16.4766 40.4297 16.4766C37.513 16.4766 35.0156 16.5677 32.9375 16.75C30.8958 16.9323 29.1641 17.1693 27.7422 17.4609C26.3568 17.7526 25.2448 18.099 24.4062 18.5C23.6042 18.8646 22.9844 19.2474 22.5469 19.6484C22.1094 20.0495 21.8177 20.4505 21.6719 20.8516C21.5625 21.2526 21.5078 21.6172 21.5078 21.9453C21.5078 23.0391 22.0547 24.0052 23.1484 24.8438C24.2422 25.6458 25.737 26.375 27.6328 27.0312C29.5286 27.651 31.7344 28.2526 34.25 28.8359C36.7656 29.3828 39.4271 29.9661 42.2344 30.5859C45.0781 31.1693 47.9948 31.8255 50.9844 32.5547C54.0104 33.2474 56.9271 34.0677 59.7344 35.0156C62.5781 35.9635 65.2578 37.0755 67.7734 38.3516C70.2891 39.5911 72.4948 41.0495 74.3906 42.7266C76.2865 44.4036 77.7812 46.3359 78.875 48.5234C79.9688 50.7109 80.5156 53.2083 80.5156 56.0156C80.5156 59.625 79.8776 62.724 78.6016 65.3125C77.3255 67.901 75.612 70.0885 73.4609 71.875C71.3464 73.6615 68.8854 75.1016 66.0781 76.1953C63.2708 77.2526 60.3177 78.0729 57.2188 78.6562C54.1562 79.2396 51.0391 79.6224 47.8672 79.8047C44.7318 79.987 41.7422 80.0781 38.8984 80.0781C31.4609 80.0781 24.5703 79.4583 18.2266 78.2188C11.9193 77.0156 6.34115 75.5026 1.49219 73.6797V55.7422C6.48698 58.513 12.1745 60.6823 18.5547 62.25C24.9714 63.8177 31.8255 64.6016 39.1172 64.6016C43.4193 64.6016 46.9193 64.3828 49.6172 63.9453C52.3516 63.4714 54.4844 62.888 56.0156 62.1953C57.5469 61.4661 58.5859 60.6823 59.1328 59.8438C59.6797 59.0052 59.9531 58.2031 59.9531 57.4375C59.9531 56.2344 59.4062 55.1953 58.3125 54.3203C57.2188 53.4089 55.724 52.625 53.8281 51.9688C51.9323 51.276 49.7266 50.6562 47.2109 50.1094C44.6953 49.526 42.0156 48.9609 39.1719 48.4141C36.3646 47.8307 33.4661 47.2109 30.4766 46.5547C27.487 45.8984 24.5703 45.1328 21.7266 44.2578C18.9193 43.3464 16.2578 42.3073 13.7422 41.1406C11.2266 39.9375 9.02083 38.5339 7.125 36.9297C5.22917 35.2891 3.73438 33.4115 2.64062 31.2969C1.54688 29.1458 1 26.6667 1 23.8594C1 20.5417 1.58333 17.6797 2.75 15.2734C3.91667 12.8672 5.48438 10.8255 7.45312 9.14844C9.45833 7.4349 11.7552 6.04948 14.3438 4.99219C16.9688 3.9349 19.7214 3.11458 22.6016 2.53125C25.4818 1.94792 28.3984 1.54688 31.3516 1.32812C34.3047 1.10938 37.112 1 39.7734 1C42.6901 1 45.6797 1.14583 48.7422 1.4375C51.8411 1.72917 54.8854 2.14844 57.875 2.69531C60.8646 3.20573 63.7448 3.80729 66.5156 4.5C69.3229 5.19271 71.9115 5.92188 74.2812 6.6875V24.0781ZM180.323 72.9141C177.698 74.0078 175.054 74.9922 172.393 75.8672C169.731 76.7422 166.979 77.4896 164.135 78.1094C161.291 78.7656 158.283 79.2578 155.112 79.5859C151.976 79.9141 148.604 80.0781 144.994 80.0781C137.338 80.0781 130.283 79.2578 123.83 77.6172C117.414 75.9766 111.872 73.5156 107.205 70.2344C102.575 66.9167 98.9657 62.7969 96.3772 57.875C93.7886 52.9167 92.4944 47.138 92.4944 40.5391C92.4944 33.9401 93.7886 28.1797 96.3772 23.2578C98.9657 18.2995 102.575 14.1797 107.205 10.8984C111.872 7.58073 117.414 5.10156 123.83 3.46094C130.283 1.82031 137.338 1 144.994 1C148.604 1 151.976 1.16406 155.112 1.49219C158.283 1.82031 161.291 2.3125 164.135 2.96875C166.979 3.58854 169.731 4.33594 172.393 5.21094C175.054 6.08594 177.698 7.07031 180.323 8.16406V26.4297C178.244 25.2995 176.057 24.1875 173.76 23.0938C171.463 21.9635 168.929 20.9609 166.158 20.0859C163.388 19.1745 160.343 18.4453 157.026 17.8984C153.708 17.3151 149.971 17.0234 145.815 17.0234C139.434 17.0234 134.13 17.6797 129.901 18.9922C125.708 20.3047 122.354 22.0547 119.838 24.2422C117.323 26.4297 115.554 28.9453 114.533 31.7891C113.513 34.5964 113.002 37.513 113.002 40.5391C113.002 42.5443 113.221 44.5312 113.658 46.5C114.096 48.4323 114.825 50.2734 115.846 52.0234C116.867 53.737 118.198 55.3229 119.838 56.7812C121.479 58.2396 123.52 59.4974 125.963 60.5547C128.406 61.612 131.25 62.4505 134.494 63.0703C137.776 63.6536 141.549 63.9453 145.815 63.9453C149.971 63.9453 153.708 63.6901 157.026 63.1797C160.343 62.6328 163.388 61.9219 166.158 61.0469C168.929 60.1719 171.463 59.1875 173.76 58.0938C176.057 56.9635 178.244 55.8151 180.323 54.6484V72.9141ZM257.926 63.8359H216.036L208.981 78.0547H186.34L225.661 2.91406H248.301L287.622 78.0547H264.981L257.926 63.8359ZM223.309 49.1797H250.762L237.09 21.5078L223.309 49.1797ZM297.686 78.0547V2.91406H317.975V61.5938H372.827V78.0547H297.686ZM386.884 78.0547V2.91406H462.954V18.9375H407.72V31.3516H460.11V47.375H407.72V62.0312H463.72V78.0547H386.884Z"/>
</mask>
<path d="M74.2812 24.0781C72.8594 23.3854 70.9818 22.6016 68.6484 21.7266C66.3151 20.8516 63.6719 20.0312 60.7188 19.2656C57.7656 18.4635 54.5573 17.8073 51.0938 17.2969C47.6302 16.75 44.0755 16.4766 40.4297 16.4766C37.513 16.4766 35.0156 16.5677 32.9375 16.75C30.8958 16.9323 29.1641 17.1693 27.7422 17.4609C26.3568 17.7526 25.2448 18.099 24.4062 18.5C23.6042 18.8646 22.9844 19.2474 22.5469 19.6484C22.1094 20.0495 21.8177 20.4505 21.6719 20.8516C21.5625 21.2526 21.5078 21.6172 21.5078 21.9453C21.5078 23.0391 22.0547 24.0052 23.1484 24.8438C24.2422 25.6458 25.737 26.375 27.6328 27.0312C29.5286 27.651 31.7344 28.2526 34.25 28.8359C36.7656 29.3828 39.4271 29.9661 42.2344 30.5859C45.0781 31.1693 47.9948 31.8255 50.9844 32.5547C54.0104 33.2474 56.9271 34.0677 59.7344 35.0156C62.5781 35.9635 65.2578 37.0755 67.7734 38.3516C70.2891 39.5911 72.4948 41.0495 74.3906 42.7266C76.2865 44.4036 77.7812 46.3359 78.875 48.5234C79.9688 50.7109 80.5156 53.2083 80.5156 56.0156C80.5156 59.625 79.8776 62.724 78.6016 65.3125C77.3255 67.901 75.612 70.0885 73.4609 71.875C71.3464 73.6615 68.8854 75.1016 66.0781 76.1953C63.2708 77.2526 60.3177 78.0729 57.2188 78.6562C54.1562 79.2396 51.0391 79.6224 47.8672 79.8047C44.7318 79.987 41.7422 80.0781 38.8984 80.0781C31.4609 80.0781 24.5703 79.4583 18.2266 78.2188C11.9193 77.0156 6.34115 75.5026 1.49219 73.6797V55.7422C6.48698 58.513 12.1745 60.6823 18.5547 62.25C24.9714 63.8177 31.8255 64.6016 39.1172 64.6016C43.4193 64.6016 46.9193 64.3828 49.6172 63.9453C52.3516 63.4714 54.4844 62.888 56.0156 62.1953C57.5469 61.4661 58.5859 60.6823 59.1328 59.8438C59.6797 59.0052 59.9531 58.2031 59.9531 57.4375C59.9531 56.2344 59.4062 55.1953 58.3125 54.3203C57.2188 53.4089 55.724 52.625 53.8281 51.9688C51.9323 51.276 49.7266 50.6562 47.2109 50.1094C44.6953 49.526 42.0156 48.9609 39.1719 48.4141C36.3646 47.8307 33.4661 47.2109 30.4766 46.5547C27.487 45.8984 24.5703 45.1328 21.7266 44.2578C18.9193 43.3464 16.2578 42.3073 13.7422 41.1406C11.2266 39.9375 9.02083 38.5339 7.125 36.9297C5.22917 35.2891 3.73438 33.4115 2.64062 31.2969C1.54688 29.1458 1 26.6667 1 23.8594C1 20.5417 1.58333 17.6797 2.75 15.2734C3.91667 12.8672 5.48438 10.8255 7.45312 9.14844C9.45833 7.4349 11.7552 6.04948 14.3438 4.99219C16.9688 3.9349 19.7214 3.11458 22.6016 2.53125C25.4818 1.94792 28.3984 1.54688 31.3516 1.32812C34.3047 1.10938 37.112 1 39.7734 1C42.6901 1 45.6797 1.14583 48.7422 1.4375C51.8411 1.72917 54.8854 2.14844 57.875 2.69531C60.8646 3.20573 63.7448 3.80729 66.5156 4.5C69.3229 5.19271 71.9115 5.92188 74.2812 6.6875V24.0781ZM180.323 72.9141C177.698 74.0078 175.054 74.9922 172.393 75.8672C169.731 76.7422 166.979 77.4896 164.135 78.1094C161.291 78.7656 158.283 79.2578 155.112 79.5859C151.976 79.9141 148.604 80.0781 144.994 80.0781C137.338 80.0781 130.283 79.2578 123.83 77.6172C117.414 75.9766 111.872 73.5156 107.205 70.2344C102.575 66.9167 98.9657 62.7969 96.3772 57.875C93.7886 52.9167 92.4944 47.138 92.4944 40.5391C92.4944 33.9401 93.7886 28.1797 96.3772 23.2578C98.9657 18.2995 102.575 14.1797 107.205 10.8984C111.872 7.58073 117.414 5.10156 123.83 3.46094C130.283 1.82031 137.338 1 144.994 1C148.604 1 151.976 1.16406 155.112 1.49219C158.283 1.82031 161.291 2.3125 164.135 2.96875C166.979 3.58854 169.731 4.33594 172.393 5.21094C175.054 6.08594 177.698 7.07031 180.323 8.16406V26.4297C178.244 25.2995 176.057 24.1875 173.76 23.0938C171.463 21.9635 168.929 20.9609 166.158 20.0859C163.388 19.1745 160.343 18.4453 157.026 17.8984C153.708 17.3151 149.971 17.0234 145.815 17.0234C139.434 17.0234 134.13 17.6797 129.901 18.9922C125.708 20.3047 122.354 22.0547 119.838 24.2422C117.323 26.4297 115.554 28.9453 114.533 31.7891C113.513 34.5964 113.002 37.513 113.002 40.5391C113.002 42.5443 113.221 44.5312 113.658 46.5C114.096 48.4323 114.825 50.2734 115.846 52.0234C116.867 53.737 118.198 55.3229 119.838 56.7812C121.479 58.2396 123.52 59.4974 125.963 60.5547C128.406 61.612 131.25 62.4505 134.494 63.0703C137.776 63.6536 141.549 63.9453 145.815 63.9453C149.971 63.9453 153.708 63.6901 157.026 63.1797C160.343 62.6328 163.388 61.9219 166.158 61.0469C168.929 60.1719 171.463 59.1875 173.76 58.0938C176.057 56.9635 178.244 55.8151 180.323 54.6484V72.9141ZM257.926 63.8359H216.036L208.981 78.0547H186.34L225.661 2.91406H248.301L287.622 78.0547H264.981L257.926 63.8359ZM223.309 49.1797H250.762L237.09 21.5078L223.309 49.1797ZM297.686 78.0547V2.91406H317.975V61.5938H372.827V78.0547H297.686ZM386.884 78.0547V2.91406H462.954V18.9375H407.72V31.3516H460.11V47.375H407.72V62.0312H463.72V78.0547H386.884Z" fill="#070707"/>
<path d="M74.2812 24.0781L73.8433 24.9771L75.2812 25.6777V24.0781H74.2812ZM60.7188 19.2656L60.4566 20.2307L60.4678 20.2336L60.7188 19.2656ZM51.0938 17.2969L50.9378 18.2847L50.948 18.2862L51.0938 17.2969ZM32.9375 16.75L32.8501 15.7538L32.8486 15.754L32.9375 16.75ZM27.7422 17.4609L27.5412 16.4813L27.5362 16.4824L27.7422 17.4609ZM24.4062 18.5L24.8201 19.4104L24.8289 19.4063L24.8377 19.4021L24.4062 18.5ZM21.6719 20.8516L20.7321 20.5098L20.718 20.5486L20.7071 20.5884L21.6719 20.8516ZM23.1484 24.8438L22.54 25.6374L22.5485 25.6438L22.5571 25.6502L23.1484 24.8438ZM27.6328 27.0312L27.3057 27.9762L27.3139 27.9791L27.3221 27.9817L27.6328 27.0312ZM34.25 28.8359L34.0241 29.8102L34.0376 29.8131L34.25 28.8359ZM42.2344 30.5859L42.0188 31.5624L42.0261 31.564L42.0334 31.5655L42.2344 30.5859ZM50.9844 32.5547L50.7474 33.5262L50.7543 33.5279L50.7612 33.5295L50.9844 32.5547ZM59.7344 35.0156L59.4145 35.9631L59.4181 35.9643L59.7344 35.0156ZM67.7734 38.3516L67.321 39.2435L67.3314 39.2486L67.7734 38.3516ZM78.6016 65.3125L77.7046 64.8703L78.6016 65.3125ZM73.4609 71.875L72.822 71.1057L72.8156 71.1111L73.4609 71.875ZM66.0781 76.1953L66.4306 77.1312L66.4412 77.1271L66.0781 76.1953ZM57.2188 78.6562L57.0338 77.6735L57.0316 77.6739L57.2188 78.6562ZM47.8672 79.8047L47.8098 78.8063L47.8091 78.8064L47.8672 79.8047ZM18.2266 78.2188L18.4183 77.2373L18.4139 77.2365L18.2266 78.2188ZM1.49219 73.6797H0.492188V74.3721L1.14029 74.6157L1.49219 73.6797ZM1.49219 55.7422L1.97729 54.8677L0.492188 54.0439V55.7422H1.49219ZM18.5547 62.25L18.3161 63.2211L18.3174 63.2214L18.5547 62.25ZM49.6172 63.9453L49.7773 64.9325L49.788 64.9306L49.6172 63.9453ZM56.0156 62.1953L56.4278 63.1064L56.4367 63.1024L56.4456 63.0982L56.0156 62.1953ZM58.3125 54.3203L57.6723 55.0885L57.68 55.0949L57.6878 55.1012L58.3125 54.3203ZM53.8281 51.9688L53.4849 52.908L53.493 52.9109L53.501 52.9137L53.8281 51.9688ZM47.2109 50.1094L46.985 51.0836L46.9985 51.0866L47.2109 50.1094ZM39.1719 48.4141L38.9684 49.3932L38.9757 49.3947L38.983 49.3961L39.1719 48.4141ZM21.7266 44.2578L21.4178 45.2089L21.4251 45.2113L21.4325 45.2136L21.7266 44.2578ZM13.7422 41.1406L13.3107 42.0428L13.3215 42.0478L13.7422 41.1406ZM7.125 36.9297L6.47058 37.6859L6.47906 37.6931L7.125 36.9297ZM2.64062 31.2969L1.74922 31.7501L1.75241 31.7563L2.64062 31.2969ZM7.45312 9.14844L8.10159 9.90968L8.10278 9.90867L7.45312 9.14844ZM14.3438 4.99219L13.9701 4.06459L13.9656 4.06644L14.3438 4.99219ZM48.7422 1.4375L48.6474 2.433L48.6485 2.4331L48.7422 1.4375ZM57.875 2.69531L57.695 3.67906L57.7067 3.68105L57.875 2.69531ZM66.5156 4.5L66.2731 5.47015L66.2761 5.47088L66.5156 4.5ZM74.2812 6.6875H75.2812V5.95969L74.5887 5.73593L74.2812 6.6875ZM74.2812 24.0781L74.7192 23.1791C73.2577 22.4671 71.3477 21.6708 68.9996 20.7902L68.6484 21.7266L68.2973 22.6629C70.6158 23.5323 72.461 24.3037 73.8433 24.9771L74.2812 24.0781ZM68.6484 21.7266L68.9996 20.7902C66.6271 19.9006 63.9496 19.0702 60.9697 18.2976L60.7188 19.2656L60.4678 20.2336C63.3942 20.9923 66.0031 21.8026 68.2973 22.6629L68.6484 21.7266ZM60.7188 19.2656L60.9809 18.3006C57.9845 17.4868 54.7368 16.823 51.2395 16.3076L51.0938 17.2969L50.948 18.2862C54.3777 18.7916 57.5468 19.4403 60.4566 20.2307L60.7188 19.2656ZM51.0938 17.2969L51.2497 16.3091C47.7326 15.7538 44.1257 15.4766 40.4297 15.4766V16.4766V17.4766C44.0254 17.4766 47.5278 17.7462 50.9378 18.2846L51.0938 17.2969ZM40.4297 16.4766V15.4766C37.4944 15.4766 34.9662 15.5682 32.8501 15.7538L32.9375 16.75L33.0249 17.7462C35.0651 17.5672 37.5317 17.4766 40.4297 17.4766V16.4766ZM32.9375 16.75L32.8486 15.754C30.7833 15.9384 29.0117 16.1797 27.5412 16.4813L27.7422 17.4609L27.9431 18.4405C29.3164 18.1588 31.0084 17.9262 33.0264 17.746L32.9375 16.75ZM27.7422 17.4609L27.5362 16.4824C26.1089 16.7829 24.9122 17.1496 23.9748 17.5979L24.4062 18.5L24.8377 19.4021C25.5774 19.0484 26.6047 18.7223 27.9482 18.4395L27.7422 17.4609ZM24.4062 18.5L23.9924 17.5896C23.1363 17.9788 22.4141 18.4136 21.8712 18.9113L22.5469 19.6484L23.2226 20.3856C23.5546 20.0812 24.0721 19.7504 24.8201 19.4104L24.4062 18.5ZM22.5469 19.6484L21.8712 18.9113C21.3589 19.3809 20.9501 19.9103 20.7321 20.5098L21.6719 20.8516L22.6117 21.1933C22.6853 20.9907 22.8599 20.7181 23.2226 20.3856L22.5469 19.6484ZM21.6719 20.8516L20.7071 20.5884C20.5803 21.0536 20.5078 21.5083 20.5078 21.9453H21.5078H22.5078C22.5078 21.726 22.5447 21.4516 22.6366 21.1147L21.6719 20.8516ZM21.5078 21.9453H20.5078C20.5078 23.4295 21.2701 24.6638 22.54 25.6374L23.1484 24.8438L23.7569 24.0501C22.8392 23.3466 22.5078 22.6486 22.5078 21.9453H21.5078ZM23.1484 24.8438L22.5571 25.6502C23.7601 26.5324 25.3561 27.3014 27.3057 27.9762L27.6328 27.0312L27.9599 26.0863C26.1179 25.4486 24.7243 24.7593 23.7398 24.0373L23.1484 24.8438ZM27.6328 27.0312L27.3221 27.9817C29.2525 28.6129 31.4877 29.2219 34.0241 29.8101L34.25 28.8359L34.4759 27.8618C31.981 27.2833 29.8047 26.6892 27.9436 26.0808L27.6328 27.0312ZM34.25 28.8359L34.0376 29.8131C36.552 30.3597 39.2124 30.9428 42.0188 31.5624L42.2344 30.5859L42.45 29.6095C39.6417 28.9895 36.9792 28.4059 34.4624 27.8588L34.25 28.8359ZM42.2344 30.5859L42.0334 31.5655C44.8644 32.1463 47.7691 32.7998 50.7474 33.5262L50.9844 32.5547L51.2213 31.5832C48.2205 30.8513 45.2918 30.1923 42.4353 29.6063L42.2344 30.5859ZM50.9844 32.5547L50.7612 33.5295C53.7561 34.215 56.6404 35.0264 59.4145 35.9631L59.7344 35.0156L60.0543 34.0682C57.2138 33.109 54.2647 32.2797 51.2075 31.5799L50.9844 32.5547ZM59.7344 35.0156L59.4181 35.9643C62.2181 36.8976 64.852 37.991 67.3211 39.2434L67.7734 38.3516L68.2258 37.4597C65.6636 36.1601 62.9382 35.0295 60.0506 34.0669L59.7344 35.0156ZM67.7734 38.3516L67.3314 39.2486C69.7758 40.453 71.9056 41.8634 73.7281 43.4756L74.3906 42.7266L75.0532 41.9776C73.084 40.2356 70.8024 38.7293 68.2154 37.4546L67.7734 38.3516ZM74.3906 42.7266L73.7281 43.4756C75.5314 45.0708 76.9461 46.9017 77.9806 48.9706L78.875 48.5234L79.7694 48.0762C78.6164 45.7702 77.0415 43.7365 75.0532 41.9776L74.3906 42.7266ZM78.875 48.5234L77.9806 48.9706C78.9953 51.0001 79.5156 53.3406 79.5156 56.0156H80.5156H81.5156C81.5156 53.0761 80.9422 50.4218 79.7694 48.0762L78.875 48.5234ZM80.5156 56.0156H79.5156C79.5156 59.5092 78.898 62.4494 77.7046 64.8703L78.6016 65.3125L79.4985 65.7547C80.8572 62.9985 81.5156 59.7408 81.5156 56.0156H80.5156ZM78.6016 65.3125L77.7046 64.8703C76.4886 67.3371 74.8615 69.4119 72.822 71.1057L73.4609 71.875L74.0998 72.6443C76.3624 70.7652 78.1624 68.465 79.4985 65.7547L78.6016 65.3125ZM73.4609 71.875L72.8156 71.1111C70.7923 72.8204 68.4287 74.2063 65.7151 75.2635L66.0781 76.1953L66.4412 77.1271C69.3421 75.9968 71.9004 74.5025 74.1063 72.6389L73.4609 71.875ZM66.0781 76.1953L65.7257 75.2595C62.9754 76.2953 60.0785 77.1004 57.0338 77.6735L57.2188 78.6562L57.4037 79.639C60.5569 79.0455 63.5662 78.2099 66.4306 77.1311L66.0781 76.1953ZM57.2188 78.6562L57.0316 77.6739C54.0128 78.2489 50.939 78.6265 47.8098 78.8063L47.8672 79.8047L47.9246 80.803C51.1392 80.6183 54.2997 80.2302 57.4059 79.6386L57.2188 78.6562ZM47.8672 79.8047L47.8091 78.8064C44.6911 78.9877 41.721 79.0781 38.8984 79.0781V80.0781V81.0781C41.7634 81.0781 44.7725 80.9863 47.9252 80.803L47.8672 79.8047ZM38.8984 80.0781V79.0781C31.5159 79.0781 24.6903 78.4629 18.4183 77.2373L18.2266 78.2188L18.0348 79.2002C24.4503 80.4538 31.406 81.0781 38.8984 81.0781V80.0781ZM18.2266 78.2188L18.4139 77.2365C12.15 76.0416 6.62875 74.5424 1.84408 72.7436L1.49219 73.6797L1.14029 74.6157C6.05355 76.4628 11.6885 77.9896 18.0392 79.201L18.2266 78.2188ZM1.49219 73.6797H2.49219V55.7422H1.49219H0.492188V73.6797H1.49219ZM1.49219 55.7422L1.00709 56.6166C6.08998 59.4364 11.8624 61.6354 18.3161 63.2211L18.5547 62.25L18.7933 61.2789C12.4866 59.7292 6.88397 57.5897 1.97729 54.8677L1.49219 55.7422ZM18.5547 62.25L18.3174 63.2214C24.8193 64.81 31.7537 65.6016 39.1172 65.6016V64.6016V63.6016C31.8973 63.6016 25.1234 62.8255 18.792 61.2786L18.5547 62.25ZM39.1172 64.6016V65.6016C43.4462 65.6016 47.0053 65.3819 49.7773 64.9324L49.6172 63.9453L49.4571 62.9582C46.8332 63.3837 43.3924 63.6016 39.1172 63.6016V64.6016ZM49.6172 63.9453L49.788 64.9306C52.5592 64.4503 54.786 63.8492 56.4278 63.1064L56.0156 62.1953L55.6035 61.2842C54.1828 61.9269 52.144 62.4924 49.4464 62.96L49.6172 63.9453ZM56.0156 62.1953L56.4456 63.0982C58.0409 62.3385 59.2754 61.4557 59.9704 60.39L59.1328 59.8438L58.2952 59.2975C57.8965 59.9088 57.0529 60.5938 55.5857 61.2924L56.0156 62.1953ZM59.1328 59.8438L59.9704 60.39C60.5912 59.4382 60.9531 58.4485 60.9531 57.4375H59.9531H58.9531C58.9531 57.9577 58.7682 58.5722 58.2952 59.2975L59.1328 59.8438ZM59.9531 57.4375H60.9531C60.9531 55.8787 60.2245 54.5693 58.9372 53.5394L58.3125 54.3203L57.6878 55.1012C58.588 55.8214 58.9531 56.59 58.9531 57.4375H59.9531ZM58.3125 54.3203L58.9527 53.5521C57.7366 52.5387 56.1221 51.7046 54.1552 51.0238L53.8281 51.9688L53.501 52.9137C55.3258 53.5454 56.7009 54.2791 57.6723 55.0885L58.3125 54.3203ZM53.8281 51.9688L54.1713 51.0295C52.2231 50.3176 49.972 49.6862 47.4234 49.1322L47.2109 50.1094L46.9985 51.0866C49.4812 51.6263 51.6415 52.2345 53.4849 52.908L53.8281 51.9688ZM47.2109 50.1094L47.4368 49.1352C44.9075 48.5487 42.2154 47.981 39.3607 47.4321L39.1719 48.4141L38.983 49.3961C41.8158 49.9408 44.4831 50.5034 46.985 51.0835L47.2109 50.1094ZM39.1719 48.4141L39.3753 47.435C36.5719 46.8525 33.6771 46.2334 30.691 45.5779L30.4766 46.5547L30.2622 47.5314C33.2551 48.1884 36.1572 48.809 38.9684 49.3932L39.1719 48.4141ZM30.4766 46.5547L30.691 45.5779C27.7275 44.9274 24.8374 44.1687 22.0206 43.302L21.7266 44.2578L21.4325 45.2136C24.3032 46.0969 27.2465 46.8695 30.2622 47.5314L30.4766 46.5547ZM21.7266 44.2578L22.0354 43.3067C19.2638 42.4068 16.6399 41.3822 14.1629 40.2334L13.7422 41.1406L13.3215 42.0478C15.8757 43.2324 18.5747 44.2859 21.4178 45.2089L21.7266 44.2578ZM13.7422 41.1406L14.1736 40.2385C11.7259 39.0678 9.59408 37.709 7.77094 36.1663L7.125 36.9297L6.47906 37.6931C8.44759 39.3588 10.7273 40.8072 13.3107 42.0428L13.7422 41.1406ZM7.125 36.9297L7.77938 36.1735C5.97446 34.6116 4.56114 32.8332 3.52884 30.8375L2.64062 31.2969L1.75241 31.7563C2.90761 33.9897 4.48387 35.9666 6.47062 37.6859L7.125 36.9297ZM2.64062 31.2969L3.53201 30.8436C2.52048 28.8543 2 26.5349 2 23.8594H1H0C0 26.7985 0.573273 29.4374 1.74924 31.7501L2.64062 31.2969ZM1 23.8594H2C2 20.6572 2.56301 17.9513 3.64981 15.7097L2.75 15.2734L1.85019 14.8372C0.603661 17.4081 0 20.4261 0 23.8594H1ZM2.75 15.2734L3.64981 15.7097C4.75819 13.4237 6.24182 11.4939 8.10159 9.90968L7.45312 9.14844L6.80466 8.38719C4.72693 10.1571 3.07514 12.3107 1.85019 14.8372L2.75 15.2734ZM7.45312 9.14844L8.10278 9.90867C10.0221 8.26849 12.2261 6.93733 14.7219 5.91794L14.3438 4.99219L13.9656 4.06644C11.2843 5.16163 8.89454 6.6013 6.80347 8.38821L7.45312 9.14844ZM14.3438 4.99219L14.7174 5.91977C17.2836 4.88615 19.9774 4.08302 22.8001 3.51135L22.6016 2.53125L22.4031 1.55115C19.4653 2.14614 16.6539 2.98363 13.9701 4.06461L14.3438 4.99219ZM22.6016 2.53125L22.8001 3.51135C25.6388 2.93642 28.5139 2.54107 31.4254 2.32539L31.3516 1.32812L31.2777 0.330856C28.283 0.552681 25.3247 0.959419 22.4031 1.55115L22.6016 2.53125ZM31.3516 1.32812L31.4254 2.32539C34.3567 2.10826 37.1392 2 39.7734 2V1V0C37.0848 0 34.2527 0.110489 31.2777 0.330856L31.3516 1.32812ZM39.7734 1V2C42.6568 2 45.6147 2.14417 48.6474 2.433L48.7422 1.4375L48.837 0.442001C45.7447 0.147499 42.7234 0 39.7734 0V1ZM48.7422 1.4375L48.6485 2.4331C51.7192 2.72211 54.7347 3.13747 57.6951 3.67899L57.875 2.69531L58.0549 1.71163C55.0361 1.15941 51.9631 0.736221 48.8359 0.441902L48.7422 1.4375ZM57.875 2.69531L57.7067 3.68105C60.6729 4.18747 63.5283 4.78394 66.2731 5.47015L66.5156 4.5L66.7582 3.52985C63.9613 2.83065 61.0563 2.22399 58.0433 1.70958L57.875 2.69531ZM66.5156 4.5L66.2761 5.47088C69.064 6.15882 71.6296 6.88171 73.9738 7.63907L74.2812 6.6875L74.5887 5.73593C72.1933 4.96204 69.5818 4.22659 66.7552 3.52912L66.5156 4.5ZM74.2812 6.6875H73.2812V24.0781H74.2812H75.2812V6.6875H74.2812ZM180.323 72.9141L180.707 73.8371L181.323 73.5807V72.9141H180.323ZM164.135 78.1094L163.922 77.1322L163.91 77.135L164.135 78.1094ZM155.112 79.5859L155.009 78.5912L155.007 78.5914L155.112 79.5859ZM123.83 77.6172L123.583 78.586L123.584 78.5864L123.83 77.6172ZM107.205 70.2344L106.623 71.0473L106.63 71.0524L107.205 70.2344ZM96.3772 57.875L95.4907 58.3378L95.4921 58.3405L96.3772 57.875ZM96.3772 23.2578L97.2623 23.7233L97.2637 23.7206L96.3772 23.2578ZM107.205 10.8984L107.784 11.7143L107.785 11.7135L107.205 10.8984ZM123.83 3.46094L123.584 2.49177L123.583 2.4921L123.83 3.46094ZM155.112 1.49219L155.007 2.48676L155.009 2.48688L155.112 1.49219ZM164.135 2.96875L163.91 3.94321L163.922 3.94582L164.135 2.96875ZM180.323 8.16406H181.323V7.4974L180.707 7.24098L180.323 8.16406ZM180.323 26.4297L179.845 27.3082L181.323 28.1119V26.4297H180.323ZM173.76 23.0938L173.318 23.9911L173.33 23.9966L173.76 23.0938ZM166.158 20.0859L165.846 21.0359L165.857 21.0395L166.158 20.0859ZM157.026 17.8984L156.852 18.8834L156.863 18.8851L157.026 17.8984ZM129.901 18.9922L129.604 18.0371L129.602 18.0379L129.901 18.9922ZM114.533 31.7891L115.473 32.1308L115.475 32.1269L114.533 31.7891ZM113.658 46.5L112.682 46.7169L112.683 46.7208L113.658 46.5ZM115.846 52.0234L114.982 52.5273L114.987 52.5352L115.846 52.0234ZM134.494 63.0703L134.307 64.0526L134.319 64.0549L134.494 63.0703ZM157.026 63.1797L157.178 64.1681L157.188 64.1664L157.026 63.1797ZM173.76 58.0938L174.19 58.9967L174.202 58.991L173.76 58.0938ZM180.323 54.6484H181.323V52.9402L179.833 53.7765L180.323 54.6484ZM180.323 72.9141L179.938 71.991C177.336 73.075 174.717 74.0504 172.08 74.9172L172.393 75.8672L172.705 76.8172C175.391 75.934 178.059 74.9406 180.707 73.8371L180.323 72.9141ZM172.393 75.8672L172.08 74.9172C169.453 75.7811 166.734 76.5196 163.922 77.1323L164.135 78.1094L164.348 79.0864C167.224 78.4596 170.01 77.7033 172.705 76.8172L172.393 75.8672ZM164.135 78.1094L163.91 77.135C161.11 77.7812 158.143 78.267 155.009 78.5912L155.112 79.5859L155.214 80.5806C158.424 80.2486 161.472 79.7501 164.36 79.0838L164.135 78.1094ZM155.112 79.5859L155.007 78.5914C151.911 78.9154 148.574 79.0781 144.994 79.0781V80.0781V81.0781C148.634 81.0781 152.041 80.9127 155.216 80.5805L155.112 79.5859ZM144.994 80.0781V79.0781C137.409 79.0781 130.438 78.2654 124.077 76.648L123.83 77.6172L123.584 78.5864C130.129 80.2502 137.267 81.0781 144.994 81.0781V80.0781ZM123.83 77.6172L124.078 76.6484C117.76 75.033 112.333 72.6177 107.78 69.4163L107.205 70.2344L106.63 71.0524C111.41 74.4136 117.067 76.9201 123.583 78.586L123.83 77.6172ZM107.205 70.2344L107.788 69.4215C103.281 66.1922 99.7765 62.1902 97.2623 57.4095L96.3772 57.875L95.4921 58.3405C98.1549 63.4035 101.869 67.6412 106.623 71.0472L107.205 70.2344ZM96.3772 57.875L97.2637 57.4122C94.762 52.6203 93.4944 47.0058 93.4944 40.5391H92.4944H91.4944C91.4944 47.2703 92.8153 53.213 95.4907 58.3378L96.3772 57.875ZM92.4944 40.5391H93.4944C93.4944 34.0721 94.7621 28.4771 97.2623 23.7233L96.3772 23.2578L95.4921 22.7923C92.8152 27.8823 91.4944 33.8081 91.4944 40.5391H92.4944ZM96.3772 23.2578L97.2637 23.7206C99.7778 18.9048 103.281 14.9054 107.784 11.7143L107.205 10.8984L106.627 10.0825C101.87 13.454 98.1537 17.6941 95.4907 22.795L96.3772 23.2578ZM107.205 10.8984L107.785 11.7135C112.337 8.4772 117.762 6.04465 124.078 4.42977L123.83 3.46094L123.583 2.4921C117.065 4.15847 111.407 6.68426 106.626 10.0834L107.205 10.8984ZM123.83 3.46094L124.077 4.43011C130.438 2.81274 137.409 2 144.994 2V1V0C137.267 0 130.129 0.827881 123.584 2.49177L123.83 3.46094ZM144.994 1V2C148.574 2 151.911 2.16272 155.007 2.48676L155.112 1.49219L155.216 0.49762C152.041 0.165405 148.634 0 144.994 0V1ZM155.112 1.49219L155.009 2.48688C158.143 2.81114 161.11 3.29697 163.91 3.94314L164.135 2.96875L164.36 1.99436C161.472 1.32803 158.424 0.829483 155.214 0.497498L155.112 1.49219ZM164.135 2.96875L163.922 3.94582C166.734 4.55857 169.453 5.29705 172.08 6.16091L172.393 5.21094L172.705 4.26096C170.01 3.37482 167.224 2.61852 164.348 1.99168L164.135 2.96875ZM172.393 5.21094L172.08 6.16091C174.717 7.02776 177.336 8.00314 179.938 9.08714L180.323 8.16406L180.707 7.24098C178.059 6.13749 175.391 5.14411 172.705 4.26096L172.393 5.21094ZM180.323 8.16406H179.323V26.4297H180.323H181.323V8.16406H180.323ZM180.323 26.4297L180.8 25.5512C178.705 24.4118 176.502 23.2918 174.19 22.1909L173.76 23.0938L173.33 23.9966C175.612 25.0832 177.783 26.1871 179.845 27.3082L180.323 26.4297ZM173.76 23.0938L174.202 22.1965C171.854 21.0412 169.272 20.0206 166.46 19.1324L166.158 20.0859L165.857 21.0395C168.586 21.9013 171.072 22.8858 173.318 23.991L173.76 23.0938ZM166.158 20.0859L166.471 19.136C163.644 18.2062 160.549 17.4658 157.188 16.9118L157.026 17.8984L156.863 18.8851C160.137 19.4249 163.131 20.1427 165.846 21.0359L166.158 20.0859ZM157.026 17.8984L157.199 16.9135C153.812 16.3182 150.016 16.0234 145.815 16.0234V17.0234V18.0234C149.926 18.0234 153.603 18.3121 156.852 18.8833L157.026 17.8984ZM145.815 17.0234V16.0234C139.374 16.0234 133.961 16.6849 129.604 18.0371L129.901 18.9922L130.197 19.9473C134.298 18.6745 139.495 18.0234 145.815 18.0234V17.0234ZM129.901 18.9922L129.602 18.0379C125.317 19.3791 121.829 21.1857 119.182 23.4876L119.838 24.2422L120.494 24.9968C122.878 22.9237 126.098 21.2303 130.199 19.9465L129.901 18.9922ZM119.838 24.2422L119.182 23.4876C116.551 25.7755 114.677 28.4302 113.592 31.4512L114.533 31.7891L115.475 32.1269C116.432 29.4604 118.094 27.0839 120.494 24.9968L119.838 24.2422ZM114.533 31.7891L113.594 31.4473C112.532 34.3656 112.002 37.398 112.002 40.5391H113.002H114.002C114.002 37.628 114.493 34.8271 115.473 32.1308L114.533 31.7891ZM113.002 40.5391H112.002C112.002 42.6177 112.229 44.6774 112.682 46.7169L113.658 46.5L114.635 46.2831C114.213 44.3851 114.002 42.4709 114.002 40.5391H113.002ZM113.658 46.5L112.683 46.7208C113.144 48.7549 113.911 50.6912 114.982 52.5273L115.846 52.0234L116.71 51.5196C115.739 49.8557 115.048 48.1097 114.634 46.2792L113.658 46.5ZM115.846 52.0234L114.987 52.5352C116.065 54.3452 117.464 56.009 119.174 57.5287L119.838 56.7812L120.502 56.0338C118.931 54.6368 117.668 53.1287 116.705 51.5116L115.846 52.0234ZM119.838 56.7812L119.174 57.5287C120.909 59.0708 123.046 60.3816 125.566 61.4724L125.963 60.5547L126.36 59.637C123.995 58.6132 122.049 57.4084 120.502 56.0338L119.838 56.7812ZM125.963 60.5547L125.566 61.4724C128.09 62.5648 131.006 63.4221 134.307 64.0526L134.494 63.0703L134.682 62.0881C131.493 61.4789 128.722 60.6591 126.36 59.637L125.963 60.5547ZM134.494 63.0703L134.319 64.0549C137.672 64.6509 141.506 64.9453 145.815 64.9453V63.9453V62.9453C141.592 62.9453 137.879 62.6564 134.669 62.0857L134.494 63.0703ZM145.815 63.9453V64.9453C150.01 64.9453 153.799 64.6878 157.178 64.1681L157.026 63.1797L156.874 62.1913C153.616 62.6924 149.931 62.9453 145.815 62.9453V63.9453ZM157.026 63.1797L157.188 64.1664C160.546 63.6129 163.637 62.8918 166.46 62.0005L166.158 61.0469L165.857 60.0933C163.138 60.952 160.141 61.6527 156.863 62.193L157.026 63.1797ZM166.158 61.0469L166.46 62.0005C169.268 61.1135 171.846 60.1128 174.19 58.9966L173.76 58.0938L173.33 57.1909C171.08 58.2622 168.59 59.2303 165.857 60.0933L166.158 61.0469ZM173.76 58.0938L174.202 58.991C176.513 57.8534 178.717 56.6966 180.812 55.5204L180.323 54.6484L179.833 53.7765C177.772 54.9336 175.6 56.0737 173.318 57.1965L173.76 58.0938ZM180.323 54.6484H179.323V72.9141H180.323H181.323V54.6484H180.323ZM257.926 63.8359L258.822 63.3915L258.546 62.8359H257.926V63.8359ZM216.036 63.8359V62.8359H215.415L215.14 63.3915L216.036 63.8359ZM208.981 78.0547V79.0547H209.601L209.877 78.4991L208.981 78.0547ZM186.34 78.0547L185.454 77.591L184.688 79.0547H186.34V78.0547ZM225.661 2.91406V1.91406H225.055L224.775 2.45042L225.661 2.91406ZM248.301 2.91406L249.187 2.45042L248.907 1.91406H248.301V2.91406ZM287.622 78.0547V79.0547H289.273L288.508 77.591L287.622 78.0547ZM264.981 78.0547L264.085 78.4991L264.361 79.0547H264.981V78.0547ZM223.309 49.1797L222.414 48.7339L221.694 50.1797H223.309V49.1797ZM250.762 49.1797V50.1797H252.372L251.659 48.7367L250.762 49.1797ZM237.09 21.5078L237.987 21.0649L237.094 19.2575L236.195 21.062L237.09 21.5078ZM257.926 63.8359V62.8359H216.036V63.8359V64.8359H257.926V63.8359ZM216.036 63.8359L215.14 63.3915L208.085 77.6102L208.981 78.0547L209.877 78.4991L216.931 64.2804L216.036 63.8359ZM208.981 78.0547V77.0547H186.34V78.0547V79.0547H208.981V78.0547ZM186.34 78.0547L187.226 78.5183L226.547 3.37771L225.661 2.91406L224.775 2.45042L185.454 77.591L186.34 78.0547ZM225.661 2.91406V3.91406H248.301V2.91406V1.91406H225.661V2.91406ZM248.301 2.91406L247.415 3.37771L286.736 78.5183L287.622 78.0547L288.508 77.591L249.187 2.45042L248.301 2.91406ZM287.622 78.0547V77.0547H264.981V78.0547V79.0547H287.622V78.0547ZM264.981 78.0547L265.877 77.6102L258.822 63.3915L257.926 63.8359L257.03 64.2804L264.085 78.4991L264.981 78.0547ZM223.309 49.1797V50.1797H250.762V49.1797V48.1797H223.309V49.1797ZM250.762 49.1797L251.659 48.7367L237.987 21.0649L237.09 21.5078L236.194 21.9508L249.866 49.6226L250.762 49.1797ZM237.09 21.5078L236.195 21.062L222.414 48.7339L223.309 49.1797L224.204 49.6255L237.985 21.9536L237.09 21.5078ZM297.686 78.0547H296.686V79.0547H297.686V78.0547ZM297.686 2.91406V1.91406H296.686V2.91406H297.686ZM317.975 2.91406H318.975V1.91406H317.975V2.91406ZM317.975 61.5938H316.975V62.5938H317.975V61.5938ZM372.827 61.5938H373.827V60.5938H372.827V61.5938ZM372.827 78.0547V79.0547H373.827V78.0547H372.827ZM297.686 78.0547H298.686V2.91406H297.686H296.686V78.0547H297.686ZM297.686 2.91406V3.91406H317.975V2.91406V1.91406H297.686V2.91406ZM317.975 2.91406H316.975V61.5938H317.975H318.975V2.91406H317.975ZM317.975 61.5938V62.5938H372.827V61.5938V60.5938H317.975V61.5938ZM372.827 61.5938H371.827V78.0547H372.827H373.827V61.5938H372.827ZM372.827 78.0547V77.0547H297.686V78.0547V79.0547H372.827V78.0547ZM386.884 78.0547H385.884V79.0547H386.884V78.0547ZM386.884 2.91406V1.91406H385.884V2.91406H386.884ZM462.954 2.91406H463.954V1.91406H462.954V2.91406ZM462.954 18.9375V19.9375H463.954V18.9375H462.954ZM407.72 18.9375V17.9375H406.72V18.9375H407.72ZM407.72 31.3516H406.72V32.3516H407.72V31.3516ZM460.11 31.3516H461.11V30.3516H460.11V31.3516ZM460.11 47.375V48.375H461.11V47.375H460.11ZM407.72 47.375V46.375H406.72V47.375H407.72ZM407.72 62.0312H406.72V63.0312H407.72V62.0312ZM463.72 62.0312H464.72V61.0312H463.72V62.0312ZM463.72 78.0547V79.0547H464.72V78.0547H463.72ZM386.884 78.0547H387.884V2.91406H386.884H385.884V78.0547H386.884ZM386.884 2.91406V3.91406H462.954V2.91406V1.91406H386.884V2.91406ZM462.954 2.91406H461.954V18.9375H462.954H463.954V2.91406H462.954ZM462.954 18.9375V17.9375H407.72V18.9375V19.9375H462.954V18.9375ZM407.72 18.9375H406.72V31.3516H407.72H408.72V18.9375H407.72ZM407.72 31.3516V32.3516H460.11V31.3516V30.3516H407.72V31.3516ZM460.11 31.3516H459.11V47.375H460.11H461.11V31.3516H460.11ZM460.11 47.375V46.375H407.72V47.375V48.375H460.11V47.375ZM407.72 47.375H406.72V62.0312H407.72H408.72V47.375H407.72ZM407.72 62.0312V63.0312H463.72V62.0312V61.0312H407.72V62.0312ZM463.72 62.0312H462.72V78.0547H463.72H464.72V62.0312H463.72ZM463.72 78.0547V77.0547H386.884V78.0547V79.0547H463.72V78.0547Z" fill="url(#paint0_linear_138_1665)" mask="url(#path-1-outside-1_138_1665)"/>
<defs>
<linearGradient id="paint0_linear_138_1665" x1="-6.71094" y1="103.055" x2="434.903" y2="-75.6608" gradientUnits="userSpaceOnUse">
<stop stop-color="#09BBFF"/>
<stop offset="1" stop-color="#7733FF"/>
</linearGradient>
</defs>
</svg>
