<svg width="655" height="114" viewBox="0 0 655 114" fill="none" xmlns="http://www.w3.org/2000/svg">
<mask id="path-1-outside-1_62_218" maskUnits="userSpaceOnUse" x="-0.87793" y="-0.297852" width="656" height="114" fill="black">
<rect fill="white" x="-0.87793" y="-0.297852" width="656" height="114"/>
<path d="M104.379 33.5566C102.373 32.5794 99.7243 31.4736 96.4326 30.2393C93.141 29.0049 89.4121 27.8477 85.2461 26.7676C81.0801 25.6361 76.554 24.7103 71.668 23.9902C66.7819 23.2188 61.7673 22.833 56.624 22.833C52.5094 22.833 48.9863 22.9616 46.0547 23.2188C43.1745 23.4759 40.7314 23.8102 38.7256 24.2217C36.7712 24.6331 35.2025 25.1217 34.0195 25.6875C32.888 26.2018 32.0137 26.7419 31.3965 27.3076C30.7793 27.8734 30.3678 28.4391 30.1621 29.0049C30.0078 29.5706 29.9307 30.085 29.9307 30.5479C29.9307 32.0908 30.7021 33.4538 32.2451 34.6367C33.7881 35.7682 35.8968 36.7969 38.5713 37.7227C41.2458 38.597 44.3574 39.4456 47.9062 40.2686C51.4551 41.04 55.2096 41.863 59.1699 42.7373C63.1816 43.5602 67.2962 44.486 71.5137 45.5146C75.7826 46.4919 79.8971 47.6491 83.8574 48.9863C87.8691 50.3236 91.6494 51.8923 95.1982 53.6924C98.7471 55.4411 101.859 57.4984 104.533 59.8643C107.208 62.2301 109.316 64.9561 110.859 68.042C112.402 71.1279 113.174 74.651 113.174 78.6113C113.174 83.7031 112.274 88.0749 110.474 91.7266C108.674 95.3783 106.256 98.4642 103.222 100.984C100.239 103.505 96.7669 105.536 92.8066 107.079C88.8464 108.571 84.6803 109.728 80.3086 110.551C75.9883 111.374 71.5908 111.914 67.1162 112.171C62.693 112.428 58.4756 112.557 54.4639 112.557C43.9717 112.557 34.251 111.682 25.3018 109.934C16.404 108.236 8.53483 106.102 1.69434 103.53V78.2256C8.74056 82.1344 16.764 85.1947 25.7646 87.4062C34.8167 89.6178 44.486 90.7236 54.7725 90.7236C60.8415 90.7236 65.779 90.415 69.585 89.7979C73.4424 89.1292 76.4512 88.3063 78.6113 87.3291C80.7715 86.3005 82.2373 85.1947 83.0088 84.0117C83.7803 82.8288 84.166 81.6973 84.166 80.6172C84.166 78.9199 83.3945 77.4541 81.8516 76.2197C80.3086 74.9339 78.1999 73.8281 75.5254 72.9023C72.8509 71.9251 69.7393 71.0508 66.1904 70.2793C62.6416 69.4564 58.8613 68.6592 54.8496 67.8877C50.8893 67.0648 46.8005 66.1904 42.583 65.2646C38.3656 64.3389 34.251 63.2588 30.2393 62.0244C26.279 60.7386 22.5244 59.2728 18.9756 57.627C15.4268 55.9297 12.3151 53.9495 9.64062 51.6865C6.96615 49.3721 4.85742 46.7233 3.31445 43.7402C1.77148 40.7057 1 37.2083 1 33.248C1 28.5677 1.82292 24.5303 3.46875 21.1357C5.11458 17.7412 7.32617 14.861 10.1035 12.4951C12.9323 10.0778 16.1725 8.12337 19.8242 6.63184C23.5273 5.1403 27.4105 3.98307 31.4736 3.16016C35.5368 2.33724 39.6514 1.77148 43.8174 1.46289C47.9834 1.1543 51.9437 1 55.6982 1C59.8128 1 64.0303 1.20573 68.3506 1.61719C72.7223 2.02865 77.0169 2.62012 81.2344 3.3916C85.4518 4.11165 89.515 4.96029 93.4238 5.9375C97.3841 6.91471 101.036 7.94336 104.379 9.02344V33.5566ZM253.973 102.45C250.27 103.993 246.541 105.382 242.786 106.616C239.032 107.851 235.149 108.905 231.137 109.779C227.125 110.705 222.882 111.399 218.407 111.862C213.984 112.325 209.227 112.557 204.135 112.557C193.334 112.557 183.382 111.399 174.278 109.085C165.226 106.771 157.409 103.299 150.825 98.6699C144.293 93.9896 139.202 88.1777 135.55 81.2344C131.898 74.2396 130.072 66.0876 130.072 56.7783C130.072 47.4691 131.898 39.3428 135.55 32.3994C139.202 25.4046 144.293 19.5928 150.825 14.9639C157.409 10.2835 165.226 6.78613 174.278 4.47168C183.382 2.15723 193.334 1 204.135 1C209.227 1 213.984 1.23145 218.407 1.69434C222.882 2.15723 227.125 2.85156 231.137 3.77734C235.149 4.65169 239.032 5.70605 242.786 6.94043C246.541 8.1748 250.27 9.56348 253.973 11.1064V36.874C251.041 35.2796 247.955 33.7109 244.715 32.168C241.475 30.5736 237.9 29.1592 233.991 27.9248C230.083 26.639 225.788 25.6104 221.108 24.8389C216.427 24.016 211.155 23.6045 205.292 23.6045C196.291 23.6045 188.808 24.5303 182.842 26.3818C176.927 28.2334 172.195 30.7021 168.647 33.7881C165.098 36.874 162.603 40.4229 161.163 44.4346C159.723 48.3949 159.003 52.5094 159.003 56.7783C159.003 59.6071 159.312 62.4102 159.929 65.1875C160.546 67.9134 161.575 70.5107 163.015 72.9795C164.455 75.3968 166.332 77.6341 168.647 79.6914C170.961 81.7487 173.841 83.5231 177.287 85.0146C180.733 86.5062 184.745 87.6891 189.322 88.5635C193.951 89.3864 199.275 89.7979 205.292 89.7979C211.155 89.7979 216.427 89.4378 221.108 88.7178C225.788 87.9463 230.083 86.9434 233.991 85.709C237.9 84.4746 241.475 83.0859 244.715 81.543C247.955 79.9486 251.041 78.3285 253.973 76.6826V102.45ZM363.45 89.6436H304.354L294.402 109.702H262.462L317.932 3.7002H349.871L405.341 109.702H373.402L363.45 89.6436ZM314.615 68.9678H353.343L334.056 29.9307L314.615 68.9678ZM419.54 109.702V3.7002H448.162V86.4805H525.541V109.702H419.54ZM545.372 109.702V3.7002H652.685V26.3047H574.765V43.8174H648.673V66.4219H574.765V87.0977H653.765V109.702H545.372Z"/>
</mask>
<path d="M104.379 33.5566C102.373 32.5794 99.7243 31.4736 96.4326 30.2393C93.141 29.0049 89.4121 27.8477 85.2461 26.7676C81.0801 25.6361 76.554 24.7103 71.668 23.9902C66.7819 23.2188 61.7673 22.833 56.624 22.833C52.5094 22.833 48.9863 22.9616 46.0547 23.2188C43.1745 23.4759 40.7314 23.8102 38.7256 24.2217C36.7712 24.6331 35.2025 25.1217 34.0195 25.6875C32.888 26.2018 32.0137 26.7419 31.3965 27.3076C30.7793 27.8734 30.3678 28.4391 30.1621 29.0049C30.0078 29.5706 29.9307 30.085 29.9307 30.5479C29.9307 32.0908 30.7021 33.4538 32.2451 34.6367C33.7881 35.7682 35.8968 36.7969 38.5713 37.7227C41.2458 38.597 44.3574 39.4456 47.9062 40.2686C51.4551 41.04 55.2096 41.863 59.1699 42.7373C63.1816 43.5602 67.2962 44.486 71.5137 45.5146C75.7826 46.4919 79.8971 47.6491 83.8574 48.9863C87.8691 50.3236 91.6494 51.8923 95.1982 53.6924C98.7471 55.4411 101.859 57.4984 104.533 59.8643C107.208 62.2301 109.316 64.9561 110.859 68.042C112.402 71.1279 113.174 74.651 113.174 78.6113C113.174 83.7031 112.274 88.0749 110.474 91.7266C108.674 95.3783 106.256 98.4642 103.222 100.984C100.239 103.505 96.7669 105.536 92.8066 107.079C88.8464 108.571 84.6803 109.728 80.3086 110.551C75.9883 111.374 71.5908 111.914 67.1162 112.171C62.693 112.428 58.4756 112.557 54.4639 112.557C43.9717 112.557 34.251 111.682 25.3018 109.934C16.404 108.236 8.53483 106.102 1.69434 103.53V78.2256C8.74056 82.1344 16.764 85.1947 25.7646 87.4062C34.8167 89.6178 44.486 90.7236 54.7725 90.7236C60.8415 90.7236 65.779 90.415 69.585 89.7979C73.4424 89.1292 76.4512 88.3063 78.6113 87.3291C80.7715 86.3005 82.2373 85.1947 83.0088 84.0117C83.7803 82.8288 84.166 81.6973 84.166 80.6172C84.166 78.9199 83.3945 77.4541 81.8516 76.2197C80.3086 74.9339 78.1999 73.8281 75.5254 72.9023C72.8509 71.9251 69.7393 71.0508 66.1904 70.2793C62.6416 69.4564 58.8613 68.6592 54.8496 67.8877C50.8893 67.0648 46.8005 66.1904 42.583 65.2646C38.3656 64.3389 34.251 63.2588 30.2393 62.0244C26.279 60.7386 22.5244 59.2728 18.9756 57.627C15.4268 55.9297 12.3151 53.9495 9.64062 51.6865C6.96615 49.3721 4.85742 46.7233 3.31445 43.7402C1.77148 40.7057 1 37.2083 1 33.248C1 28.5677 1.82292 24.5303 3.46875 21.1357C5.11458 17.7412 7.32617 14.861 10.1035 12.4951C12.9323 10.0778 16.1725 8.12337 19.8242 6.63184C23.5273 5.1403 27.4105 3.98307 31.4736 3.16016C35.5368 2.33724 39.6514 1.77148 43.8174 1.46289C47.9834 1.1543 51.9437 1 55.6982 1C59.8128 1 64.0303 1.20573 68.3506 1.61719C72.7223 2.02865 77.0169 2.62012 81.2344 3.3916C85.4518 4.11165 89.515 4.96029 93.4238 5.9375C97.3841 6.91471 101.036 7.94336 104.379 9.02344V33.5566ZM253.973 102.45C250.27 103.993 246.541 105.382 242.786 106.616C239.032 107.851 235.149 108.905 231.137 109.779C227.125 110.705 222.882 111.399 218.407 111.862C213.984 112.325 209.227 112.557 204.135 112.557C193.334 112.557 183.382 111.399 174.278 109.085C165.226 106.771 157.409 103.299 150.825 98.6699C144.293 93.9896 139.202 88.1777 135.55 81.2344C131.898 74.2396 130.072 66.0876 130.072 56.7783C130.072 47.4691 131.898 39.3428 135.55 32.3994C139.202 25.4046 144.293 19.5928 150.825 14.9639C157.409 10.2835 165.226 6.78613 174.278 4.47168C183.382 2.15723 193.334 1 204.135 1C209.227 1 213.984 1.23145 218.407 1.69434C222.882 2.15723 227.125 2.85156 231.137 3.77734C235.149 4.65169 239.032 5.70605 242.786 6.94043C246.541 8.1748 250.27 9.56348 253.973 11.1064V36.874C251.041 35.2796 247.955 33.7109 244.715 32.168C241.475 30.5736 237.9 29.1592 233.991 27.9248C230.083 26.639 225.788 25.6104 221.108 24.8389C216.427 24.016 211.155 23.6045 205.292 23.6045C196.291 23.6045 188.808 24.5303 182.842 26.3818C176.927 28.2334 172.195 30.7021 168.647 33.7881C165.098 36.874 162.603 40.4229 161.163 44.4346C159.723 48.3949 159.003 52.5094 159.003 56.7783C159.003 59.6071 159.312 62.4102 159.929 65.1875C160.546 67.9134 161.575 70.5107 163.015 72.9795C164.455 75.3968 166.332 77.6341 168.647 79.6914C170.961 81.7487 173.841 83.5231 177.287 85.0146C180.733 86.5062 184.745 87.6891 189.322 88.5635C193.951 89.3864 199.275 89.7979 205.292 89.7979C211.155 89.7979 216.427 89.4378 221.108 88.7178C225.788 87.9463 230.083 86.9434 233.991 85.709C237.9 84.4746 241.475 83.0859 244.715 81.543C247.955 79.9486 251.041 78.3285 253.973 76.6826V102.45ZM363.45 89.6436H304.354L294.402 109.702H262.462L317.932 3.7002H349.871L405.341 109.702H373.402L363.45 89.6436ZM314.615 68.9678H353.343L334.056 29.9307L314.615 68.9678ZM419.54 109.702V3.7002H448.162V86.4805H525.541V109.702H419.54ZM545.372 109.702V3.7002H652.685V26.3047H574.765V43.8174H648.673V66.4219H574.765V87.0977H653.765V109.702H545.372Z" fill="#070707"/>
<path d="M104.379 33.5566L103.941 34.4556L105.379 35.1562V33.5566H104.379ZM85.2461 26.7676L84.984 27.7327L84.9951 27.7356L85.2461 26.7676ZM71.668 23.9902L71.512 24.9781L71.5222 24.9795L71.668 23.9902ZM46.0547 23.2188L45.9673 22.2226L45.9658 22.2227L46.0547 23.2188ZM38.7256 24.2217L38.5246 23.2421L38.5196 23.2431L38.7256 24.2217ZM34.0195 25.6875L34.4333 26.5979L34.4422 26.5938L34.451 26.5896L34.0195 25.6875ZM30.1621 29.0049L29.2223 28.6631L29.2082 28.7019L29.1973 28.7418L30.1621 29.0049ZM32.2451 34.6367L31.6367 35.4303L31.6452 35.4368L31.6538 35.4431L32.2451 34.6367ZM38.5713 37.7227L38.2442 38.6676L38.2523 38.6705L38.2606 38.6731L38.5713 37.7227ZM47.9062 40.2686L47.6803 41.2428L47.6938 41.2457L47.9062 40.2686ZM59.1699 42.7373L58.9543 43.7138L58.9616 43.7154L58.969 43.7169L59.1699 42.7373ZM71.5137 45.5146L71.2767 46.4862L71.2836 46.4879L71.2905 46.4894L71.5137 45.5146ZM83.8574 48.9863L83.5375 49.9338L83.5412 49.935L83.8574 48.9863ZM95.1982 53.6924L94.7458 54.5843L94.7562 54.5894L95.1982 53.6924ZM110.474 91.7266L109.577 91.2844L110.474 91.7266ZM103.222 100.984L102.583 100.215L102.576 100.22L103.222 100.984ZM92.8066 107.079L93.1591 108.015L93.1697 108.011L92.8066 107.079ZM80.3086 110.551L80.1236 109.568L80.1215 109.568L80.3086 110.551ZM67.1162 112.171L67.0588 111.173L67.0582 111.173L67.1162 112.171ZM25.3018 109.934L25.4935 108.952L25.4891 108.951L25.3018 109.934ZM1.69434 103.53H0.694336V104.223L1.34244 104.466L1.69434 103.53ZM1.69434 78.2256L2.17944 77.3511L0.694336 76.5273V78.2256H1.69434ZM25.7646 87.4062L25.526 88.3774L25.5273 88.3777L25.7646 87.4062ZM69.585 89.7979L69.745 90.785L69.7557 90.7832L69.585 89.7979ZM78.6113 87.3291L79.0235 88.2402L79.0324 88.2362L79.0413 88.232L78.6113 87.3291ZM81.8516 76.2197L81.2114 76.9879L81.2191 76.9944L81.2269 77.0006L81.8516 76.2197ZM75.5254 72.9023L75.1822 73.8416L75.1902 73.8445L75.1983 73.8473L75.5254 72.9023ZM66.1904 70.2793L65.9645 71.2535L65.978 71.2565L66.1904 70.2793ZM54.8496 67.8877L54.6462 68.8668L54.6535 68.8683L54.6608 68.8697L54.8496 67.8877ZM30.2393 62.0244L29.9305 62.9755L29.9378 62.9779L29.9452 62.9802L30.2393 62.0244ZM18.9756 57.627L18.5441 58.5292L18.5549 58.5341L18.9756 57.627ZM9.64062 51.6865L8.98621 52.4427L8.99468 52.4499L9.64062 51.6865ZM3.31445 43.7402L2.42305 44.1935L2.42624 44.1997L3.31445 43.7402ZM10.1035 12.4951L10.752 13.2564L10.7532 13.2553L10.1035 12.4951ZM19.8242 6.63184L19.4506 5.70424L19.4461 5.70609L19.8242 6.63184ZM68.3506 1.61719L68.2558 2.61269L68.2569 2.61279L68.3506 1.61719ZM81.2344 3.3916L81.0544 4.37535L81.0661 4.37733L81.2344 3.3916ZM93.4238 5.9375L93.1813 6.90765L93.1843 6.90838L93.4238 5.9375ZM104.379 9.02344H105.379V8.29562L104.686 8.07187L104.379 9.02344ZM104.379 33.5566L104.817 32.6577C102.771 31.6611 100.09 30.5429 96.7837 29.3029L96.4326 30.2393L96.0815 31.1756C99.3583 32.4044 101.975 33.4977 103.941 34.4556L104.379 33.5566ZM96.4326 30.2393L96.7837 29.3029C93.453 28.0539 89.6898 26.8866 85.4971 25.7996L85.2461 26.7676L84.9951 27.7356C89.1344 28.8087 92.8289 29.9559 96.0815 31.1756L96.4326 30.2393ZM85.2461 26.7676L85.5082 25.8025C81.299 24.6593 76.7336 23.7259 71.8138 23.0009L71.668 23.9902L71.5222 24.9795C76.3745 25.6946 80.8612 26.6128 84.984 27.7326L85.2461 26.7676ZM71.668 23.9902L71.8239 23.0025C66.8843 22.2225 61.8174 21.833 56.624 21.833V22.833V23.833C61.7171 23.833 66.6795 24.215 71.512 24.978L71.668 23.9902ZM56.624 22.833V21.833C52.4908 21.833 48.9369 21.9621 45.9673 22.2226L46.0547 23.2188L46.1421 24.2149C49.0358 23.9611 52.5281 23.833 56.624 23.833V22.833ZM46.0547 23.2188L45.9658 22.2227C43.0619 22.482 40.5791 22.8206 38.5246 23.2421L38.7256 24.2217L38.9265 25.2013C40.8838 24.7998 43.287 24.4698 46.1436 24.2148L46.0547 23.2188ZM38.7256 24.2217L38.5196 23.2431C36.5233 23.6634 34.8698 24.1723 33.5881 24.7854L34.0195 25.6875L34.451 26.5896C35.5351 26.0711 37.0191 25.6029 38.9316 25.2002L38.7256 24.2217ZM34.0195 25.6875L33.6057 24.7771C32.4201 25.316 31.4434 25.908 30.7208 26.5705L31.3965 27.3076L32.0722 28.0448C32.5839 27.5757 33.3559 27.0876 34.4333 26.5979L34.0195 25.6875ZM31.3965 27.3076L30.7208 26.5705C30.0288 27.2048 29.5002 27.8989 29.2223 28.6631L30.1621 29.0049L31.1019 29.3466C31.2355 28.9793 31.5298 28.542 32.0722 28.0448L31.3965 27.3076ZM30.1621 29.0049L29.1973 28.7418C29.0256 29.3716 28.9307 29.9761 28.9307 30.5479H29.9307H30.9307C30.9307 30.1938 30.9901 29.7697 31.1269 29.268L30.1621 29.0049ZM29.9307 30.5479H28.9307C28.9307 32.4813 29.9176 34.1124 31.6367 35.4303L32.2451 34.6367L32.8535 33.8431C31.4867 32.7952 30.9307 31.7003 30.9307 30.5479H29.9307ZM32.2451 34.6367L31.6538 35.4431C33.306 36.6548 35.5159 37.7232 38.2442 38.6676L38.5713 37.7227L38.8984 36.7777C36.2777 35.8705 34.2702 34.8817 32.8365 33.8303L32.2451 34.6367ZM38.5713 37.7227L38.2606 38.6731C40.9697 39.5588 44.1107 40.415 47.6804 41.2427L47.9062 40.2686L48.1321 39.2944C44.6041 38.4763 41.5219 37.6352 38.882 36.7722L38.5713 37.7227ZM47.9062 40.2686L47.6938 41.2457C51.2415 42.017 54.995 42.8396 58.9543 43.7138L59.1699 42.7373L59.3855 41.7608C55.4243 40.8863 51.6687 40.0631 48.1187 39.2914L47.9062 40.2686ZM59.1699 42.7373L58.969 43.7169C62.9679 44.5372 67.0705 45.4603 71.2767 46.4862L71.5137 45.5146L71.7506 44.5431C67.5219 43.5117 63.3953 42.5832 59.3709 41.7577L59.1699 42.7373ZM71.5137 45.5146L71.2905 46.4894C75.5283 47.4595 79.6105 48.6078 83.5375 49.9338L83.8574 48.9863L84.1773 48.0389C80.1838 46.6904 76.0368 45.5242 71.7368 44.5399L71.5137 45.5146ZM83.8574 48.9863L83.5412 49.935C87.5091 51.2576 91.2436 52.8077 94.7459 54.5842L95.1982 53.6924L95.6506 52.8006C92.0552 50.9768 88.2292 49.3895 84.1737 48.0376L83.8574 48.9863ZM95.1982 53.6924L94.7562 54.5894C98.2338 56.303 101.27 58.3123 103.871 60.6133L104.533 59.8643L105.196 59.1153C102.448 56.6845 99.2604 54.5792 95.6403 52.7954L95.1982 53.6924ZM104.533 59.8643L103.871 60.6133C106.453 62.8973 108.481 65.5218 109.965 68.4892L110.859 68.042L111.754 67.5948C110.152 64.3903 107.963 61.563 105.196 59.1153L104.533 59.8643ZM110.859 68.042L109.965 68.4892C111.429 71.4171 112.174 74.7833 112.174 78.6113H113.174H114.174C114.174 74.5188 113.376 70.8388 111.754 67.5948L110.859 68.042ZM113.174 78.6113H112.174C112.174 83.5873 111.294 87.8003 109.577 91.2844L110.474 91.7266L111.371 92.1687C113.253 88.3494 114.174 83.819 114.174 78.6113H113.174ZM110.474 91.7266L109.577 91.2844C107.837 94.8143 105.506 97.7875 102.583 100.215L103.222 100.984L103.861 101.754C107.007 99.1409 109.51 95.9422 111.371 92.1687L110.474 91.7266ZM103.222 100.984L102.576 100.22C99.6846 102.664 96.3102 104.641 92.4436 106.147L92.8066 107.079L93.1697 108.011C97.2236 106.431 100.793 104.346 103.867 101.748L103.222 100.984ZM92.8066 107.079L92.4542 106.143C88.5509 107.613 84.4412 108.755 80.1236 109.568L80.3086 110.551L80.4936 111.534C84.9195 110.7 89.1418 109.528 93.1591 108.015L92.8066 107.079ZM80.3086 110.551L80.1215 109.568C75.8448 110.383 71.4907 110.918 67.0588 111.173L67.1162 112.171L67.1736 113.169C71.6909 112.91 76.1317 112.364 80.4957 111.533L80.3086 110.551ZM67.1162 112.171L67.0582 111.173C62.6524 111.429 58.4544 111.557 54.4639 111.557V112.557V113.557C58.4968 113.557 62.7337 113.427 67.1743 113.169L67.1162 112.171ZM54.4639 112.557V111.557C44.0267 111.557 34.371 110.687 25.4935 108.952L25.3018 109.934L25.11 110.915C34.131 112.678 43.9167 113.557 54.4639 113.557V112.557ZM25.3018 109.934L25.4891 108.951C16.6347 107.262 8.82243 105.142 2.04623 102.594L1.69434 103.53L1.34244 104.466C8.24723 107.062 16.1732 109.21 25.1144 110.916L25.3018 109.934ZM1.69434 103.53H2.69434V78.2256H1.69434H0.694336V103.53H1.69434ZM1.69434 78.2256L1.20924 79.1C8.34356 83.0578 16.4519 86.1477 25.526 88.3774L25.7646 87.4062L26.0033 86.4351C17.0761 84.2416 9.13755 81.2111 2.17944 77.3511L1.69434 78.2256ZM25.7646 87.4062L25.5273 88.3777C34.6646 90.6101 44.4142 91.7236 54.7725 91.7236V90.7236V89.7236C44.5578 89.7236 34.9688 88.6256 26.002 86.4348L25.7646 87.4062ZM54.7725 90.7236V91.7236C60.8684 91.7236 65.865 91.4141 69.745 90.785L69.585 89.7979L69.4249 88.8107C65.6929 89.4159 60.8146 89.7236 54.7725 89.7236V90.7236ZM69.585 89.7979L69.7557 90.7832C73.65 90.1082 76.7528 89.2674 79.0235 88.2402L78.6113 87.3291L78.1992 86.418C76.1496 87.3452 73.2348 88.1503 69.4142 88.8125L69.585 89.7979ZM78.6113 87.3291L79.0413 88.232C81.2655 87.1728 82.9268 85.9681 83.8464 84.558L83.0088 84.0117L82.1712 83.4655C81.5479 84.4212 80.2775 85.4281 78.1814 86.4262L78.6113 87.3291ZM83.0088 84.0117L83.8464 84.558C84.6918 83.2618 85.166 81.9427 85.166 80.6172H84.166H83.166C83.166 81.4519 82.8688 82.3958 82.1712 83.4655L83.0088 84.0117ZM84.166 80.6172H85.166C85.166 78.5643 84.2127 76.828 82.4763 75.4389L81.8516 76.2197L81.2269 77.0006C82.5763 78.0802 83.166 79.2756 83.166 80.6172H84.166ZM81.8516 76.2197L82.4917 75.4515C80.8264 74.0637 78.5981 72.9077 75.8525 71.9574L75.5254 72.9023L75.1983 73.8473C77.8017 74.7485 79.7908 75.8041 81.2114 76.9879L81.8516 76.2197ZM75.5254 72.9023L75.8686 71.9631C73.1417 70.9667 69.9846 70.0808 66.4029 69.3021L66.1904 70.2793L65.978 71.2565C69.4939 72.0208 72.5601 72.8835 75.1822 73.8416L75.5254 72.9023ZM66.1904 70.2793L66.4163 69.3051C62.8538 68.4791 59.0611 67.6793 55.0385 66.9057L54.8496 67.8877L54.6608 68.8697C58.6615 69.6391 62.4294 70.4337 65.9645 71.2534L66.1904 70.2793ZM54.8496 67.8877L55.0531 66.9086C51.0967 66.0865 47.0115 65.2129 42.7974 64.2879L42.583 65.2646L42.3686 66.2414C46.5895 67.1679 50.682 68.0431 54.6462 68.8668L54.8496 67.8877ZM42.583 65.2646L42.7974 64.2879C38.606 63.3678 34.5181 62.2947 30.5333 61.0686L30.2393 62.0244L29.9452 62.9802C33.9839 64.2229 38.1251 65.3099 42.3686 66.2414L42.583 65.2646ZM30.2393 62.0244L30.5481 61.0733C26.6235 59.7991 22.9065 58.3477 19.3963 56.7198L18.9756 57.627L18.5549 58.5341C22.1423 60.1979 25.9344 61.6781 29.9305 62.9755L30.2393 62.0244ZM18.9756 57.627L19.407 56.7248C15.926 55.06 12.8883 53.1246 10.2866 50.9231L9.64062 51.6865L8.99468 52.4499C11.7419 54.7744 14.9275 56.7994 18.5441 58.5291L18.9756 57.627ZM9.64062 51.6865L10.295 50.9304C7.71144 48.6946 5.68419 46.1451 4.20267 43.2808L3.31445 43.7402L2.42624 44.1997C4.03065 47.3015 6.22085 50.0496 8.98625 52.4427L9.64062 51.6865ZM3.31445 43.7402L4.20584 43.287C2.74509 40.4142 2 37.0765 2 33.248H1H0C0 37.3401 0.797883 40.9973 2.42307 44.1935L3.31445 43.7402ZM1 33.248H2C2 28.6833 2.80259 24.8018 4.36856 21.572L3.46875 21.1357L2.56894 20.6995C0.843245 24.2587 0 28.4521 0 33.248H1ZM3.46875 21.1357L4.36856 21.572C5.95611 18.2977 8.08362 15.5294 10.752 13.2564L10.1035 12.4951L9.45505 11.7339C6.56873 14.1926 4.27306 17.1847 2.56894 20.6995L3.46875 21.1357ZM10.1035 12.4951L10.7532 13.2553C13.4961 10.9114 16.6434 9.01122 20.2023 7.55759L19.8242 6.63184L19.4461 5.70609C15.7016 7.23552 12.3685 9.2442 9.45386 11.7349L10.1035 12.4951ZM19.8242 6.63184L20.1978 7.55942C23.8422 6.09156 27.6665 4.95152 31.6721 4.14026L31.4736 3.16016L31.2751 2.18005C27.1544 3.01463 23.2125 4.18904 19.4506 5.70425L19.8242 6.63184ZM31.4736 3.16016L31.6721 4.14026C35.6938 3.32574 39.7668 2.76568 43.8913 2.46016L43.8174 1.46289L43.7435 0.465622C39.536 0.77729 35.3797 1.34874 31.2751 2.18005L31.4736 3.16016ZM43.8174 1.46289L43.8913 2.46016C48.0354 2.15318 51.9709 2 55.6982 2V1V0C51.9165 0 47.9314 0.155411 43.7435 0.465622L43.8174 1.46289ZM55.6982 1V2C59.7795 2 63.9653 2.20406 68.2558 2.61269L68.3506 1.61719L68.4454 0.621689C64.0953 0.207397 59.8461 0 55.6982 0V1ZM68.3506 1.61719L68.2569 2.61279C72.6004 3.02159 76.8662 3.60915 81.0544 4.37528L81.2344 3.3916L81.4143 2.40792C77.1676 1.63109 72.8442 1.0357 68.4443 0.62159L68.3506 1.61719ZM81.2344 3.3916L81.0661 4.37733C85.2601 5.09339 89.2984 5.93693 93.1813 6.90765L93.4238 5.9375L93.6664 4.96735C89.7315 3.98364 85.6435 3.12991 81.4027 2.40587L81.2344 3.3916ZM93.4238 5.9375L93.1843 6.90838C97.1252 7.88083 100.754 8.9032 104.071 9.97501L104.379 9.02344L104.686 8.07187C101.318 6.98352 97.643 5.9486 93.6634 4.96662L93.4238 5.9375ZM104.379 9.02344H103.379V33.5566H104.379H105.379V9.02344H104.379ZM253.973 102.45L254.357 103.373L254.973 103.117V102.45H253.973ZM231.137 109.779L230.924 108.802L230.912 108.805L231.137 109.779ZM218.407 111.862L218.304 110.868L218.303 110.868L218.407 111.862ZM174.278 109.085L174.031 110.054L174.032 110.054L174.278 109.085ZM150.825 98.6699L150.243 99.4828L150.25 99.488L150.825 98.6699ZM135.55 81.2344L134.663 81.6972L134.665 81.6999L135.55 81.2344ZM135.55 32.3994L136.435 32.8649L136.436 32.8622L135.55 32.3994ZM150.825 14.9639L151.404 15.7798L151.405 15.7789L150.825 14.9639ZM174.278 4.47168L174.032 3.50251L174.031 3.50285L174.278 4.47168ZM218.407 1.69434L218.303 2.6889L218.304 2.68903L218.407 1.69434ZM231.137 3.77734L230.912 4.75181L230.924 4.75441L231.137 3.77734ZM253.973 11.1064H254.973V10.4398L254.357 10.1834L253.973 11.1064ZM253.973 36.874L253.495 37.7525L254.973 38.5562V36.874H253.973ZM244.715 32.168L244.273 33.0653L244.285 33.0708L244.715 32.168ZM233.991 27.9248L233.679 28.8748L233.69 28.8784L233.991 27.9248ZM221.108 24.8389L220.934 25.8238L220.945 25.8256L221.108 24.8389ZM182.842 26.3818L182.546 25.4268L182.543 25.4275L182.842 26.3818ZM161.163 44.4346L162.103 44.7763L162.104 44.7724L161.163 44.4346ZM159.929 65.1875L158.953 65.4044L158.954 65.4083L159.929 65.1875ZM163.015 72.9795L162.151 73.4834L162.156 73.4913L163.015 72.9795ZM168.647 79.6914L167.982 80.4388L168.647 79.6914ZM189.322 88.5635L189.135 89.5458L189.147 89.548L189.322 88.5635ZM221.108 88.7178L221.26 89.7062L221.27 89.7045L221.108 88.7178ZM244.715 81.543L245.145 82.4459L245.156 82.4402L244.715 81.543ZM253.973 76.6826H254.973V74.9744L253.483 75.8106L253.973 76.6826ZM253.973 102.45L253.588 101.527C249.908 103.06 246.204 104.44 242.474 105.666L242.786 106.616L243.099 107.566C246.878 106.324 250.631 104.926 254.357 103.373L253.973 102.45ZM242.786 106.616L242.474 105.666C238.753 106.889 234.903 107.935 230.924 108.802L231.137 109.779L231.35 110.756C235.394 109.875 239.31 108.812 243.099 107.566L242.786 106.616ZM231.137 109.779L230.912 108.805C226.944 109.721 222.742 110.409 218.304 110.868L218.407 111.862L218.51 112.857C223.022 112.39 227.306 111.69 231.362 110.754L231.137 109.779ZM218.407 111.862L218.303 110.868C213.919 111.327 209.197 111.557 204.135 111.557V112.557V113.557C209.257 113.557 214.049 113.324 218.511 112.857L218.407 111.862ZM204.135 112.557V111.557C193.405 111.557 183.537 110.407 174.525 108.116L174.278 109.085L174.032 110.054C183.227 112.392 193.263 113.557 204.135 113.557V112.557ZM174.278 109.085L174.526 108.116C165.573 105.827 157.87 102.401 151.401 97.8519L150.825 98.6699L150.25 99.488C156.947 104.197 164.88 107.714 174.031 110.054L174.278 109.085ZM150.825 98.6699L151.408 97.8571C144.999 93.2651 140.012 87.5711 136.435 80.7689L135.55 81.2344L134.665 81.6999C138.391 88.7844 143.588 94.7141 150.243 99.4828L150.825 98.6699ZM135.55 81.2344L136.436 80.7716C132.872 73.9433 131.072 65.9553 131.072 56.7783H130.072H129.072C129.072 66.2198 130.925 74.5359 134.663 81.6972L135.55 81.2344ZM130.072 56.7783H131.072C131.072 47.6011 132.872 39.6402 136.435 32.8649L135.55 32.3994L134.665 31.9339C130.925 39.0454 129.072 47.3371 129.072 56.7783H130.072ZM135.55 32.3994L136.436 32.8622C140.014 26.01 144.999 20.3184 151.404 15.7798L150.825 14.9639L150.247 14.148C143.588 18.8671 138.39 24.7993 134.663 31.9366L135.55 32.3994ZM150.825 14.9639L151.405 15.7789C157.874 11.18 165.575 7.72923 174.526 5.44051L174.278 4.47168L174.031 3.50285C164.878 5.84304 156.944 9.38705 150.246 14.1488L150.825 14.9639ZM174.278 4.47168L174.525 5.44085C183.537 3.14966 193.405 2 204.135 2V1V0C193.263 0 183.227 1.16479 174.032 3.50251L174.278 4.47168ZM204.135 1V2C209.197 2 213.919 2.2301 218.303 2.6889L218.407 1.69434L218.511 0.699768C214.049 0.232788 209.257 0 204.135 0V1ZM218.407 1.69434L218.304 2.68903C222.742 3.14806 226.944 3.83604 230.912 4.75173L231.137 3.77734L231.362 2.80296C227.306 1.86709 223.022 1.1664 218.51 0.699646L218.407 1.69434ZM231.137 3.77734L230.924 4.75441C234.903 5.62172 238.753 6.66717 242.474 7.8904L242.786 6.94043L243.099 5.99046C239.31 4.74494 235.394 3.68166 231.35 2.80028L231.137 3.77734ZM242.786 6.94043L242.474 7.8904C246.204 9.11663 249.908 10.4963 253.588 12.0295L253.973 11.1064L254.357 10.1834C250.631 8.63065 246.878 7.23298 243.099 5.99046L242.786 6.94043ZM253.973 11.1064H252.973V36.874H253.973H254.973V11.1064H253.973ZM253.973 36.874L254.451 35.9955C251.502 34.392 248.4 32.8152 245.145 31.2651L244.715 32.168L244.285 33.0708C247.51 34.6067 250.58 36.1673 253.495 37.7525L253.973 36.874ZM244.715 32.168L245.156 31.2707C241.865 29.6513 238.243 28.2188 234.292 26.9712L233.991 27.9248L233.69 28.8784C237.557 30.0995 241.084 31.4959 244.273 33.0652L244.715 32.168ZM233.991 27.9248L234.304 26.9749C230.339 25.6708 225.994 24.6308 221.27 23.8522L221.108 24.8389L220.945 25.8256C225.582 26.5899 229.826 27.6072 233.679 28.8747L233.991 27.9248ZM221.108 24.8389L221.281 23.854C216.532 23.019 211.201 22.6045 205.292 22.6045V23.6045V24.6045C211.11 24.6045 216.323 25.0129 220.934 25.8238L221.108 24.8389ZM205.292 23.6045V22.6045C196.231 22.6045 188.64 23.5355 182.546 25.4268L182.842 26.3818L183.138 27.3369C188.976 25.5251 196.352 24.6045 205.292 24.6045V23.6045ZM182.842 26.3818L182.543 25.4275C176.537 27.3078 171.671 29.8332 167.99 33.0335L168.647 33.7881L169.303 34.5427C172.72 31.5711 177.318 29.159 183.141 27.3362L182.842 26.3818ZM168.647 33.7881L167.99 33.0335C164.326 36.2198 161.726 39.9078 160.222 44.0967L161.163 44.4346L162.104 44.7724C163.481 40.9379 165.869 37.5283 169.303 34.5427L168.647 33.7881ZM161.163 44.4346L160.223 44.0928C158.743 48.1641 158.003 52.3944 158.003 56.7783H159.003H160.003C160.003 52.6244 160.703 48.6256 162.103 44.7763L161.163 44.4346ZM159.003 56.7783H158.003C158.003 59.6805 158.32 62.5563 158.953 65.4044L159.929 65.1875L160.905 64.9706C160.304 62.264 160.003 59.5337 160.003 56.7783H159.003ZM159.929 65.1875L158.954 65.4083C159.594 68.236 160.661 70.9285 162.151 73.4834L163.015 72.9795L163.879 72.4756C162.489 70.093 161.498 67.5909 160.904 64.9667L159.929 65.1875ZM163.015 72.9795L162.156 73.4913C163.653 76.005 165.599 78.3202 167.982 80.4388L168.647 79.6914L169.311 78.944C167.066 76.948 165.257 74.7886 163.874 72.4677L163.015 72.9795ZM168.647 79.6914L167.982 80.4388C170.391 82.5799 173.367 84.4073 176.89 85.9324L177.287 85.0146L177.684 84.0969C174.316 82.6389 171.531 80.9175 169.311 78.944L168.647 79.6914ZM177.287 85.0146L176.89 85.9324C180.417 87.459 184.502 88.6608 189.135 89.5457L189.322 88.5635L189.51 87.5812C184.988 86.7175 181.049 85.5534 177.684 84.0969L177.287 85.0146ZM189.322 88.5635L189.147 89.548C193.847 90.3836 199.231 90.7979 205.292 90.7979V89.7979V88.7979C199.318 88.7979 194.055 88.3892 189.497 87.5789L189.322 88.5635ZM205.292 89.7979V90.7979C211.195 90.7979 216.519 90.4355 221.26 89.7061L221.108 88.7178L220.956 87.7294C216.336 88.4401 211.116 88.7979 205.292 88.7979V89.7979ZM221.108 88.7178L221.27 89.7045C225.99 88.9264 230.332 87.9133 234.292 86.6626L233.991 85.709L233.69 84.7554C229.833 85.9734 225.585 86.9662 220.945 87.7311L221.108 88.7178ZM233.991 85.709L234.292 86.6626C238.239 85.4162 241.858 84.0112 245.145 82.4458L244.715 81.543L244.285 80.6401C241.092 82.1607 237.561 83.533 233.69 84.7554L233.991 85.709ZM244.715 81.543L245.156 82.4402C248.412 80.8384 251.514 79.2099 254.462 77.5546L253.973 76.6826L253.483 75.8106C250.569 77.447 247.499 79.0587 244.273 80.6457L244.715 81.543ZM253.973 76.6826H252.973V102.45H253.973H254.973V76.6826H253.973ZM363.45 89.6436L364.345 89.1991L364.07 88.6436H363.45V89.6436ZM304.354 89.6436V88.6436H303.734L303.458 89.1991L304.354 89.6436ZM294.402 109.702V110.702H295.022L295.297 110.147L294.402 109.702ZM262.462 109.702L261.576 109.239L260.81 110.702H262.462V109.702ZM317.932 3.7002V2.7002H317.327L317.046 3.23655L317.932 3.7002ZM349.871 3.7002L350.757 3.23655L350.477 2.7002H349.871V3.7002ZM405.341 109.702V110.702H406.993L406.227 109.239L405.341 109.702ZM373.402 109.702L372.506 110.147L372.781 110.702H373.402V109.702ZM314.615 68.9678L313.719 68.522L312.999 69.9678H314.615V68.9678ZM353.343 68.9678V69.9678H354.953L354.24 68.5248L353.343 68.9678ZM334.056 29.9307L334.953 29.4877L334.06 27.6803L333.161 29.4849L334.056 29.9307ZM363.45 89.6436V88.6436H304.354V89.6436V90.6436H363.45V89.6436ZM304.354 89.6436L303.458 89.1991L293.506 109.258L294.402 109.702L295.297 110.147L305.25 90.088L304.354 89.6436ZM294.402 109.702V108.702H262.462V109.702V110.702H294.402V109.702ZM262.462 109.702L263.348 110.166L318.818 4.16384L317.932 3.7002L317.046 3.23655L261.576 109.239L262.462 109.702ZM317.932 3.7002V4.7002H349.871V3.7002V2.7002H317.932V3.7002ZM349.871 3.7002L348.985 4.16384L404.455 110.166L405.341 109.702L406.227 109.239L350.757 3.23655L349.871 3.7002ZM405.341 109.702V108.702H373.402V109.702V110.702H405.341V109.702ZM373.402 109.702L374.297 109.258L364.345 89.1991L363.45 89.6436L362.554 90.088L372.506 110.147L373.402 109.702ZM314.615 68.9678V69.9678H353.343V68.9678V67.9678H314.615V68.9678ZM353.343 68.9678L354.24 68.5248L334.953 29.4877L334.056 29.9307L333.159 30.3736L352.447 69.4107L353.343 68.9678ZM334.056 29.9307L333.161 29.4849L313.719 68.522L314.615 68.9678L315.51 69.4136L334.951 30.3765L334.056 29.9307ZM419.54 109.702H418.54V110.702H419.54V109.702ZM419.54 3.7002V2.7002H418.54V3.7002H419.54ZM448.162 3.7002H449.162V2.7002H448.162V3.7002ZM448.162 86.4805H447.162V87.4805H448.162V86.4805ZM525.542 86.4805H526.542V85.4805H525.542V86.4805ZM525.542 109.702V110.702H526.542V109.702H525.542ZM419.54 109.702H420.54V3.7002H419.54H418.54V109.702H419.54ZM419.54 3.7002V4.7002H448.162V3.7002V2.7002H419.54V3.7002ZM448.162 3.7002H447.162V86.4805H448.162H449.162V3.7002H448.162ZM448.162 86.4805V87.4805H525.542V86.4805V85.4805H448.162V86.4805ZM525.542 86.4805H524.542V109.702H525.542H526.542V86.4805H525.542ZM525.542 109.702V108.702H419.54V109.702V110.702H525.542V109.702ZM545.372 109.702H544.372V110.702H545.372V109.702ZM545.372 3.7002V2.7002H544.372V3.7002H545.372ZM652.685 3.7002H653.685V2.7002H652.685V3.7002ZM652.685 26.3047V27.3047H653.685V26.3047H652.685ZM574.765 26.3047V25.3047H573.765V26.3047H574.765ZM574.765 43.8174H573.765V44.8174H574.765V43.8174ZM648.673 43.8174H649.673V42.8174H648.673V43.8174ZM648.673 66.4219V67.4219H649.673V66.4219H648.673ZM574.765 66.4219V65.4219H573.765V66.4219H574.765ZM574.765 87.0977H573.765V88.0977H574.765V87.0977ZM653.765 87.0977H654.765V86.0977H653.765V87.0977ZM653.765 109.702V110.702H654.765V109.702H653.765ZM545.372 109.702H546.372V3.7002H545.372H544.372V109.702H545.372ZM545.372 3.7002V4.7002H652.685V3.7002V2.7002H545.372V3.7002ZM652.685 3.7002H651.685V26.3047H652.685H653.685V3.7002H652.685ZM652.685 26.3047V25.3047H574.765V26.3047V27.3047H652.685V26.3047ZM574.765 26.3047H573.765V43.8174H574.765H575.765V26.3047H574.765ZM574.765 43.8174V44.8174H648.673V43.8174V42.8174H574.765V43.8174ZM648.673 43.8174H647.673V66.4219H648.673H649.673V43.8174H648.673ZM648.673 66.4219V65.4219H574.765V66.4219V67.4219H648.673V66.4219ZM574.765 66.4219H573.765V87.0977H574.765H575.765V66.4219H574.765ZM574.765 87.0977V88.0977H653.765V87.0977V86.0977H574.765V87.0977ZM653.765 87.0977H652.765V109.702H653.765H654.765V87.0977H653.765ZM653.765 109.702V108.702H545.372V109.702V110.702H653.765V109.702Z" fill="url(#paint0_linear_62_218)" mask="url(#path-1-outside-1_62_218)"/>
<defs>
<linearGradient id="paint0_linear_62_218" x1="-9.87794" y1="144.702" x2="612.628" y2="-106.945" gradientUnits="userSpaceOnUse">
<stop stop-color="#09BBFF"/>
<stop offset="1" stop-color="#7733FF"/>
</linearGradient>
</defs>
</svg>
